<?xml version="1.0" encoding="UTF-8"?>
<!DOCTYPE svg PUBLIC "-//W3C//DTD SVG 1.1//EN" "http://www.w3.org/Graphics/SVG/1.1/DTD/svg11.dtd">
<svg xmlns="http://www.w3.org/2000/svg" version="1.1" width="512px" height="512px" style="shape-rendering:geometricPrecision; text-rendering:geometricPrecision; image-rendering:optimizeQuality; fill-rule:evenodd; clip-rule:evenodd" xmlns:xlink="http://www.w3.org/1999/xlink">
<g><path style="opacity:1" fill="#000000" d="M 135.5,-0.5 C 138.833,-0.5 142.167,-0.5 145.5,-0.5C 149.317,0.840466 152.983,2.6738 156.5,5C 235,83.5 313.5,162 392,240.5C 398,250.5 398,260.5 392,270.5C 313.5,349 235,427.5 156.5,506C 152.983,508.326 149.317,510.16 145.5,511.5C 142.167,511.5 138.833,511.5 135.5,511.5C 117.656,505.145 111.489,492.812 117,474.5C 118.333,472.5 119.667,470.5 121,468.5C 192.014,397.653 262.847,326.653 333.5,255.5C 262.847,184.347 192.014,113.347 121,42.5C 111.235,28.3908 112.735,15.5575 125.5,4C 128.815,2.1702 132.149,0.670196 135.5,-0.5 Z"/></g>
</svg>
